<svg xmlns="http://www.w3.org/2000/svg" viewBox="0 0 620 390"><rect width="620" height="390" rx="20" fill="#fffdfa"/><g stroke="#159447" stroke-width="5" fill="none"><path d="M65 80h490M65 310h490M125 80v75M125 235v75M310 80v75M310 235v75M495 80v75M495 235v75"/></g><g stroke="#a51414" stroke-width="6"><path d="M95 155h60M95 178h60M280 155h60M280 178h60M465 155h60M465 178h60"/></g><g fill="#1126b8" font-family="Arial" font-size="27"><text x="165" y="174">C1</text><text x="350" y="174">C2</text><text x="535" y="174">Cn</text><text x="165" y="207">?</text><text x="350" y="207">?</text><text x="535" y="207">?</text></g><circle cx="310" cy="80" r="11" fill="#c81313"/><circle cx="310" cy="310" r="11" fill="#c81313"/></svg>
