<svg xmlns="http://www.w3.org/2000/svg" viewBox="0 0 380 520"><rect width="380" height="520" rx="20" fill="#fffdfa"/><g stroke="#159447" stroke-width="5"><path d="M170 60v80M170 205v70M170 375v80"/></g><g stroke="#a51414" stroke-width="5" fill="none"><path d="M135 60h70M125 140h90L170 205zM125 205h90M145 275h50v100h-50zM120 455h100M135 470h70M150 485h40"/><path d="M220 150l45-35M230 180l45-35"/><path d="M252 115l13 0 0 13M262 145l13 0 0 13"/></g><g fill="#1126b8" font-family="Arial" font-size="27"><text x="220" y="60">VCC</text><text x="225" y="185">LED × n</text><text x="220" y="330">R</text><text x="220" y="360">?</text><text x="220" y="490">GND</text></g></svg>
